<?xml version="1.0" standalone="no"?><!DOCTYPE svg PUBLIC "-//W3C//DTD SVG 1.1//EN" "http://www.w3.org/Graphics/SVG/1.1/DTD/svg11.dtd"><svg t="1608695422190" class="icon" viewBox="0 0 1024 1024" version="1.1" xmlns="http://www.w3.org/2000/svg" p-id="7436" xmlns:xlink="http://www.w3.org/1999/xlink" width="200" height="200"><defs><style type="text/css"></style></defs><path d="M723.2 131.2h-480c-22.4 0-40-17.6-40-40s17.6-40 40-40h480c22.4 0 40 17.6 40 40s-17.6 40-40 40z" fill="#E37E43" p-id="7437"></path><path d="M825.6 440l-262.4-224c-17.6-22.4-41.6-35.2-65.6-35.2s-49.6 12.8-65.6 35.2l-262.4 224c-16 14.4-19.2 40-4.8 56 14.4 17.6 40 19.2 56 4.8l236.8-201.6v680c0 22.4 17.6 40 40 40s40-17.6 40-40V299.2l236.8 201.6c8 6.4 16 9.6 25.6 9.6 11.2 0 22.4-4.8 30.4-14.4 12.8-16 11.2-41.6-4.8-56z" fill="#E74D31" p-id="7438"></path></svg>